<?xml version="1.0" encoding="UTF-8"?>
<svg id="Capa_1" data-name="Capa 1" xmlns="http://www.w3.org/2000/svg" viewBox="0 0 745.37 925.96">
  <defs>
    <style>
      .cls-1 {
        fill: #1d1d1b;
      }
    </style>
  </defs>
  <path class="cls-1" d="M531.23,594.78c6.77-6.75,6.54-14.68,6.29-23.05-.1-3.26-.19-6.63.15-9.95.19-1.8.93-4.15,1.72-6.63,1.7-5.36,3.63-11.44.94-15.17-1.53-2.12-4.29-3.18-8.43-3.23h-.01c-.19,0-.38.08-.52.21-10.22,9.79-13.21,19.51-9.91,32.4-1.18.35-2.04.35-2.49,0-.75-.57-.61-2.31-.51-3.71.11-1.49.21-2.67-.53-3.29-1.94-1.62-3.94-2.31-5.95-2.06-4.58.57-8.3,5.71-11.91,10.68-2.78,3.84-5.41,7.47-7.75,7.83-3.69.57-16.85-3.43-22.75-5.59-2.46-.9-17.8-7.96-19.08-8.78-1.51-.96-2.34-2.83-3.3-5-1.2-2.72-2.56-5.8-5.69-8.08-3.33-2.41-7.89-3.59-12.72-4.83-5.32-1.37-10.82-2.78-14.86-6.04-.95-.54-1.97-.49-2.97.12-2.38,1.47-4.06,5.98-4.03,6.6.05.88,1.09,1.61,8.62,6.03,7.59,4.45,20.31,11.91,20.6,15.31.02.22-.03.39-.15.56-.85,0-1.72.02-2.6.04-5.71.1-12.19.23-17.34-2.1-3.21-1.45-4.46-3.57-5.57-5.44-.73-1.23-1.41-2.38-2.54-3.06-2.9-1.75-6.24-2.32-9.18-2.82-3.72-.64-6.93-1.19-8.6-3.75-1.78-2.73-1.72-7.75.18-15.36.39-.64.87-1,1.47-1.08,2.67-.34,7.1,4.14,9.5,6.55,1.71,1.72,2.18,2.17,2.72,2.19.25.01.48-.11.63-.3,3.44-4.59,4.59-8.2,3.51-11.03-1.71-4.49-8.63-5.88-15.32-7.23-3.59-.72-6.97-1.4-9.45-2.51-4.42-1.97-24.1-15.15-24.77-17.37-1.36-4.52-.77-10.82-.24-16.38.12-1.31.24-2.57.33-3.75l11.35-25.49c.08-.19.09-.41,0-.6-.08-.19-.24-.34-.44-.41-3.06-1.08-5.05.95-6.49,2.44-.77.79-1.5,1.54-2.09,1.55h-.01c-1.01,0-3.19-1.88-5.12-3.53-3.14-2.7-6.39-5.51-9-5-.13.02-.26.08-.36.17l-15.19,13.44c-2.18-4.07-.25-5.42,2.15-7.09,2.39-1.67,5.37-3.75,1.94-8.96-1.46-2.22-6.01-4.07-10.83-6.03-4.46-1.82-9.07-3.69-11-5.77-1.95-2.1-2.52-4.42-3.12-6.87-.66-2.7-1.35-5.49-4.03-7.71-.29-.24-.71-.23-.99.03-2.56,2.39-5,3.45-7.47,3.27-5.09-.39-9.6-6.12-13.96-11.67-.8-1.01-1.59-2.02-2.38-2.98-11.93-14.6-18.46-31.16-25.38-48.68-1.49-3.79-2.99-7.59-4.56-11.39-.09-.21-.26-.37-.48-.43-1.68-.5-2.9-.41-3.74.29-1.39,1.15-1.15,3.54-.93,5.65l.08.87c.3,3.54,9.16,26.27,10.92,30.07,5.67,12.18,13.92,24.47,24.53,36.53-7.57,3.95-12.04,12.84-11.47,22.97.02.31.23.58.52.67,6.13,1.95,7.96-.22,9.58-2.13,1.11-1.31,2.08-2.46,4.43-2.58,1.34,4.28-1.4,5.79-4.05,7.25-1.55.85-3.01,1.66-3.35,3.03-1,4.02-.58,23.57.18,28.36.69,4.39,17.32,40.63,26.3,43.3,1.38.41,2.6.08,3.54-.95.2-.22.25-.53.13-.8l-6.52-15.18c1.03.19,2.01.09,2.92-.31,3.47-1.53,5.24-7.01,6.95-12.31,1.22-3.77,2.47-7.66,4.14-9.02.61-.5,2.08-.58,3.5-.65,1.77-.1,3.78-.2,5.28-1.09,1.17-.69,3.03-2.66,5.19-4.94,3.02-3.19,7.83-8.27,10.05-8.44l-25.52,29.06c-.15.17-.21.39-.18.6.03.22.16.41.35.53l8.24,5.15-10.56,4.23c-.31.12-.5.43-.47.76.03.33.27.6.59.67,1.43.3,2.85.68,4.23,1.05,3.65.97,7.42,1.97,11.54,1.61,2.55-.22,4.73-1.43,6.84-2.59,2.62-1.45,4.92-2.73,7.39-1.74-5.26,5.81-11.8,7.28-18.71,8.82-4.66,1.04-9.47,2.12-13.87,4.64-.32.18-.46.56-.33.91,1.39,3.84,7.54,3.68,13.48,3.53,4.64-.12,9.44-.24,10.71,1.65.54.81.43,2.09-.33,3.8-1.27,2.87-9.38,3.72-15.3,4.34-2.82.3-5.32.56-7.12.97.04-4.39-.7-6.75-2.32-7.38-2.62-1.02-6.14,3.09-9.24,6.72-1.11,1.3-2.5,2.92-2.93,3.09-1.98.59-4.7.19-7.59-.24-4.45-.65-9.05-1.33-12.11,1.38-2.19,1.94-3.21,5.33-3.08,10.5l5.95,30.03s.02.1.04.14c.88,2.09,2.52,3.03,4.62,2.64,3.22-.59,6.77-4.25,6.85-6.37.02-.51-.33-1.04-.96-2-1.3-1.98-3.46-5.3-3.36-9.89.08-3.61,1.62-7.58,3.11-11.41.77-1.98,1.5-3.86,2.05-5.69,4.36-1.03,9.11-.44,13.72.12,3.81.47,7.76.95,11.36.48,6.72-.88,13.58-3.11,20.85-5.46,15.42-5,31.36-10.16,45.69-1.57l14.85,63.48c-23.78-7.34-78.12,5.85-98.81,10.88-2.56.62-4.65,1.13-6.16,1.47-.98.22-2,.01-2.88-.58-1.05-.7-1.8-1.87-2-3.13l-4.25-25.77c-.03-.19-.13-.36-.29-.48-1.6-1.22-2.83-1.04-3.59-.67-2.88,1.4-4.43,8.43-4.62,20.91v.2c-.03,1.66.53,3.38,1.06,5.05.69,2.15,1.35,4.18.52,5.5-.6.96-1.99,1.6-4.24,1.94-1.65-.61-3.29-6.57-4.75-11.84-2.23-8.1-4.76-17.28-9.44-19.13-.73-.29-2.97-1.17-4.16.12-1.73,1.88.51,6.85,3.16,12.21.39.78.81,1.63,1.04,2.17-4.6,1.4-9.23.28-14.11-.9-3.42-.83-6.95-1.68-10.69-1.74-.5-2.78,2.04-6.76,4.51-10.61,3.51-5.49,7.14-11.17,2.53-14.39-.11-.07-.23-.12-.36-.13l-11.96-1.13c-.21-.01-.4.04-.56.18-.15.13-.25.32-.26.52-.07,1.12,0,2.62.06,4.35.21,5.18.54,13.01-3.27,13.93-4.75,1.16-9.84-1.91-13.61-8.19-4.34-7.23-6.17-18.04-1-23.86.25-.28.25-.69.02-.98-.23-.28-.65-.36-.96-.16l-10.98,6.58c-.08-1.88,1.1-3.51,2.34-5.22,1.11-1.54,2.16-3,2.26-4.65.08-1.44-.65-2.88-1.43-4.4-1.79-3.49-3.81-7.45,1.61-13.86.15-.17.21-.41.16-.63-.04-.22-.19-.42-.39-.52l-4.79-2.48c-.29-.15-.65-.1-.88.14l-2.97,2.97c-.66-.92-1.17-1.82-1.64-2.63-1.74-3.04-3.12-5.44-9.35-4.08-.4.09-.66.48-.58.88,3.85,19.29,1.94,34.29-2.38,52.25-.08.32.06.65.34.82.28.17.64.14.89-.08l10.39-9.21c4.65,1.85,6.48,5.4,8.24,8.83.94,1.83,1.83,3.56,3.11,4.96,1.59,1.73,3.36,2.87,5.08,3.96,2.72,1.74,5.29,3.38,7.29,7.33,4.21,8.31,2.58,11.65.69,15.51-1,2.05-2.14,4.37-2.47,7.57-.52,5.07-.35,10.31-.18,15.38.13,3.97.27,8.08.06,12.03-.01.21.06.41.21.56.14.15.34.23.54.23h7.15s0,0,0,0c.35,0,.65-.24.73-.58l5.83-25.49c7.9,2.88,6.68,9.37,5.39,16.23-.5,2.65-1.02,5.4-.95,7.88.08,3.08,1.11,6.52,2.09,9.84,1.89,6.35,3.53,11.87-.85,14.28-.34-.86-.71-2.88-1.02-4.57-1.24-6.74-3.31-18.04-11.33-16.7-.16.03-.31.11-.42.22-.66.7-.38,2.26,1.92,10.48,1.17,4.19,2.5,8.94,2.5,10.68.01,2.77-1,4.94-1.99,7.04-.96,2.04-1.86,3.97-1.6,6.14.14,1.17,8.67,13.14,8.75,13.22,3.96,4.1,9.48,3.07,14.82,2.08,3.25-.6,6.62-1.23,9.44-.6.25.05.51-.02.69-.2.18-.18.26-.43.21-.68-1.49-7.56-3.64-14.3-5.71-20.81-3.97-12.49-7.73-24.29-6.22-39.9.71-7.32,4.72-23.01,10.78-26.1,1.56-.8,3.15-.7,4.84.29,4.33,2.54,4.31,6.73,4.3,11.17,0,2.36-.02,4.8.66,7.02.58,1.9,1.78,3.44,2.94,4.93,1.66,2.13,3.22,4.14,3.34,7.27.32,8.45-.93,17.61-2.14,26.46-1.6,11.74-3.26,23.88-1.28,34.55.27,1.43-.09,2.72-.46,4.09-.27.98-.54,1.99-.6,3.1-.01.21.06.41.2.56.14.15.34.23.55.23h34.66c.24,0,.47-.11.61-.31,7.23-9.95,2.9-23.05-1.29-35.72-1.94-5.87-3.77-11.42-4.36-16.4-1-8.43-1.07-32.44,1.58-35.01,8.06-.62,15.88-2.53,23.44-4.37,5.3-1.29,10.78-2.63,16.3-3.51,10.4-1.67,21.14-1.98,31.52-2.28,5.44-.16,10.58-.31,15.66-.64,2.77-.18,5.57-.71,8.54-1.27,5.42-1.02,11.02-2.08,16.6-.93.24.05.49-.02.67-.19,1.74-1.64-.78-8.74-7.39-25.78-4.38-11.29-10.38-26.75-8.84-28.94.02-.04.05-.06.11-.08,1.56.53,3.26.91,4.9,1.27,2.12.47,4.31.96,6.15,1.77,6.49,2.85,11.92,5.11,16.71,7.11,24.24,10.12,29.29,12.23,52.86,39.98,6.6,7.77,40.22,17,50.66,13.9,6.72-1.99,12.64-10.93,13.21-19.93.44-6.87-2.35-12.32-7.69-15.13ZM341.55,535.72l2.29-17.52c6.02,1.13,30.58,8.86,32.15,12.63.03.07.04.12.04.16-11.15,4.15-21.82,5.63-34.48,4.73ZM291.6,693.44c-1.59,2.21-5.78,2.94-12.46,2.17-1.47-1.82-.9-10.56-.35-19.02.92-14.1,1.95-30-3.13-36.03l9.33-4.91v33.42c0,2.57,1.68,6.12,3.45,9.87,2.53,5.34,5.39,11.4,3.16,14.5ZM477.66,599.94l-6.7-2.8-19-19.78c2.11,1.02,4.26,1.97,6.36,2.9,7.72,3.42,15.7,6.95,21.44,13.62l-2.1,6.06Z"/>
  <path class="cls-1" d="M126.33,440.51c2.53,3.03,5.14,6.17,5.33,6.91.58,2.27-1.5,7.89-3.7,13.84-2.62,7.1-5.6,15.14-5.7,21.32-.03,2.03,3.86,42.83,11.81,46.03.32.13.7.22,1.12.22.82,0,1.81-.35,2.88-1.49.17-.18.24-.43.19-.67-.85-4.1-1.96-8.03-3.03-11.83-2.09-7.43-4.07-14.44-4.26-22.61-.25-11.16.79-37.44,15.64-43.31.03.9-.5,2.61-.93,4.03-1,3.28-2.25,7.36-.44,10,1,1.45,2.8,2.28,5.36,2.47.29.01.57-.13.71-.38l12.96-22.97c1.45-2.57,4.07-4.23,7.01-4.42,5.62-.38,11.36-1.06,16.9-1.72,5.01-.6,10.19-1.21,15.16-1.58,1.4-.12,3.07.39,4.68.86,2.48.73,5.04,1.48,6.89.13,1.44-1.05,2.16-3.12,2.26-6.51,0-.2-.07-.4-.21-.54-.14-.15-.34-.23-.54-.23h-44.22c-2.65,0-9.5,2.34-15.55,4.39-3.55,1.21-7.53,2.57-8.91,2.79-3.31-16.98,1.76-39.47,11.9-52.59,9.52-12.32,13.44-18.8,20.55-30.56l2.4-3.98c.87-1.43,2.79-3.66,5.02-6.24,5.3-6.14,11.32-13.09,10.42-17.16-.02-.1-.06-.2-.13-.28-2.71-3.72-5.97-3.33-8.59-3.01-3.02.36-5.01.6-5.95-4.7-.06-.32-.3-.56-.62-.61l-3.23-.52c-.23-.04-.46.03-.63.19l-11.61,10.65,1.89-13.15c.02-.16,0-.33-.09-.47-1.41-2.56-2.94-3.98-4.66-4.34-2.37-.5-4.51,1.14-6.39,2.58-1.16.89-2.26,1.73-3.16,1.88-1.14.18-2.38-.74-3.81-1.82-1.96-1.47-4.39-3.31-7.46-2.46-.16.04-.29.14-.39.26l-8.95,11.56c3.4-16.55-.8-24.25-5.69-25.8-5.84-1.85-14.78,4.1-21.56,21.56-12.38,31.86-5.93,78.6,6.43,106.4,2.26,5.09,8.41,12.46,12.9,17.85Z"/>
  <path class="cls-1" d="M215.29,104.55l1.17-.09c.26-.02.48-.16.61-.39.12-.22.12-.5,0-.72-4.75-8.76-3.45-14.82-1.95-21.84.67-3.12,1.36-6.34,1.57-10.02.11-1.99-.45-4.51-1.05-7.17-.97-4.32-2.07-9.22-.16-12.14.86-1.32,2.27-2.18,4.32-2.63,5.89,4.28,10.12,10.43,14.21,16.37,2.56,3.72,5.21,7.56,8.18,10.79,3.04,3.29,6.41,6.28,9.98,9.45,5.65,5,11.49,10.17,16.17,16.84,4.27,6.07,7.01,11.99,9.66,17.71,2.03,4.37,4.12,8.88,6.87,13.41.28.47.32,1.01.35,1.57.05.74.1,1.57.82,2.12.42.32.99.47,1.79.47.73,0,1.65-.13,2.84-.39.2-.04.37-.16.48-.33.11-.17.14-.38.1-.57-.24-1.04-.49-2.04-.74-3.03-1.21-4.86-2.26-9.06-1.55-14.41.31-2.32,8.64-28.75,9.69-30.73,1.4-2.64,4.92-6.09,7.85-7.79-.06,2.48-.65,5.69-1.28,9.05-1.38,7.37-2.93,15.72.44,20.42,1.37,1.92,3.48,3.1,6.26,3.5.2.02.4-.02.56-.15.16-.12.27-.31.29-.51.23-1.98.44-3.97.64-5.97,1.58-15.34,3.22-31.2,16.92-40.5-.32,5.88-1.97,12.13-3.57,18.18-1.42,5.36-2.75,10.43-3.23,15.25-.26,2.55-.68,17.21,3.6,20.69.21.17.49.21.74.12.25-.1.43-.32.48-.58l5.3-32.55,20.49-16.07-2.21,24.54c-.03.32.15.62.44.75.29.13.64.06.86-.18l13.02-14.19,12.03-4.38c.29,4.91-1.72,8.77-3.83,12.83-2.6,5.01-5.29,10.18-3.37,17.4.09.33.39.56.73.56h7.15c.22,0,.42-.08.56-.25.14-.16.21-.38.18-.59-1.67-13.42,3.52-17.46,15.09-20.43l-4.61,34.76c-.03.21.04.43.18.59.14.16.35.26.57.26h7.15c.2,0,.39-.08.53-.21.49-.48.45-1.31.27-3.86-.24-3.48-.65-9.29,1.71-11.61.83-.81,1.93-1.15,3.41-1.01.88.08,1.46.34,1.77.81.73,1.08.05,3.28-.45,4.88-.25.82-.47,1.54-.51,2.08-.4,5.42-1.2,10.54-2.05,15.95-.21,1.34-.42,2.68-.63,4.04-.06.39.2.77.59.85,3.12.66,5.45.32,7.13-1.03,3.1-2.49,3.15-7.95,3.19-13.23.02-2.99.05-6.08.64-8.47.58-2.35,1.82-4.57,3.14-6.92,2.38-4.26,4.85-8.66,3.5-14.27-.05-.2-.17-.36-.34-.47-.17-.1-.38-.14-.57-.09l-18.51,4.61c-.03-1.11,1.61-4.29,2.65-6.29,2.34-4.53,4.99-9.66,3.28-12.52-.77-1.28-2.3-1.95-4.55-1.99h-.04c-.83,0-1.75.39-2.73.79-1.41.59-3.01,1.25-4.45.84-1.5-.43-2.44-2.23-3.43-4.14-1.11-2.13-2.25-4.34-4.42-5-3.04-.92-9.28,1.65-15.33,4.14-3.36,1.39-7.9,3.26-8.97,3.04-.61-2.54.63-5.33,1.83-8.02,1.78-4.01,3.62-8.16-.92-11.24-.21-.14-.48-.17-.71-.07l-21.26,8.97,4.39-17.64c.05-.22,0-.45-.12-.63-.13-.18-.34-.29-.56-.3-6.15-.35-10.01,3.77-13.75,7.75-1.97,2.1-3.83,4.08-5.95,5.33-2.35,1.38-4.81,2.12-7.41,2.91-4.17,1.26-8.89,2.68-13.82,7.15-3.02,2.74-6.96,9.91-11.12,17.5-4.45,8.11-10.5,19.14-13.31,19.14h-.01c-7.96-8.39-15.51-17.55-22.82-26.41-13.99-16.97-28.46-34.52-46.47-47.53-.12-.09-.27-.14-.42-.14-1.09,0-1.97.8-2.78,2.5-5.46,11.45-6.6,60.22-.11,67.92,2.72,3.22,4.6,3.06,7.73,2.82Z"/>
  <path class="cls-1" d="M514.45,293.85c.96,11.27,9.07,17.4,16.9,23.32,7.91,5.98,15.39,11.63,16.48,22.19-5.95-1.57-8.98-1.54-10.07.07-1.5,2.2,1.53,6.2,5.37,11.26,2.78,3.67,5.92,7.82,6.69,10.8,1.31,5.11.26,9-.96,13.51-.25.93-.51,1.88-.75,2.87h-47.22c-.41,0-.75.34-.75.75v7.16c-.01.21.07.4.22.54.15.14.36.22.55.21l53.56-2.3c-5.59,8.21-14.1,7.68-23.09,7.12-5.47-.34-11.12-.69-16.37.9-.28.08-.48.32-.53.61-.75,4.95,2.35,5.75,5.07,6.45,2.61.68,5.31,1.38,6.46,5.09,2.78,8.98.09,10.77-3.03,12.83-1.33.88-2.71,1.79-3.69,3.29-4.49,6.87-1.7,9.99.99,13.02,1.21,1.36,2.46,2.76,3.18,4.57.5,1.26,1.16,2.86,1.9,4.67,3.81,9.33,10.2,24.95,10.7,30.56.2,2.24-.99,2.82-3.11,3.64-1.57.61-3.34,1.3-3.93,3.26-.42,1.4.06,3.99.65,7.27,1.06,5.8,2.51,13.73-.54,18.27-.19.28-.17.65.05.91,3.57,4.14,7.53,5.62,10.87,4.08,3.54-1.64,5.42-6.31,4.81-11.79l9.96-.06c-2.62,7.71-7.25,14.3-12.51,17.74-2.2,1.44-5.44,1.95-8.58,2.45-3.98.63-7.75,1.23-9.03,3.78-.81,1.62-.48,3.79,1.01,6.61.15.29.47.45.8.39,4.99-.92,7.96,1.96,10.83,4.75,2.27,2.2,4.58,4.45,7.73,4.45,1.55,0,3.3-.55,5.35-1.92,4.73-3.17,11.95-28.27,13.07-33.16l.37-1.6c1.39-6.03,3.31-14.28,2.3-19.85-.53-2.94-5.98-9.77-14.82-20.68-9.11-11.25-21.3-26.28-21.46-31.43,1.69,1.75,4.59,2.85,8.5,3.21,8.7.8,19.94-2.1,22.29-4.93,5.47-6.59,4.37-16.34,3.48-24.18-.33-2.95-.65-5.74-.58-7.98.1-2.89,1.27-5.41,2.5-8.07,1.55-3.33,3.15-6.78,2.54-11.06-.53-3.72-3.62-6.63-6.9-9.71-3.24-3.04-6.58-6.19-7.17-10.1-.45-2.96.79-5.22,2.09-7.62,1.03-1.88,2.09-3.82,2.27-6.12,1.31-16.4-12.51-27.65-24.71-37.58-4.31-3.51-8.38-6.82-11.75-10.25-.33-.33-.7-.88-1.09-1.46-1.02-1.51-2.17-3.22-3.84-3.24-1.08.02-2,.63-2.95,1.96-.1.15-.15.32-.14.5ZM555.1,398.49l.02,22.42-22.35-.03c1.17-16.02,7.5-22.37,22.33-22.4Z"/>
  <path class="cls-1" d="M514.61,491.68c.07.61.12,1.8.17,2.96.32,7.16.87,14.29,3.78,16.07.6.36,1.59.67,2.91.06.24-.11.4-.33.43-.6l3.62-31.05c.03-.23-.05-.46-.21-.62-.16-.16-.38-.24-.62-.22l-28.47,3.22c-7.36-4.9-14.36-10.1-21.13-15.12-9.58-7.12-19.49-14.48-30.47-21.01-3.9-2.32-7.78-3.85-11.53-5.33-7.87-3.1-14.68-5.79-19.69-14.61,3.78-2.53,14.68-3.52,18.58-2.46,2.36.64,4.19,2,5.95,3.31,1.56,1.17,3.04,2.27,4.73,2.72,3.83,1.02,8.48,1.33,13.4,1.66,7.13.48,14.5.97,20.58,3.62.28.12.61.06.83-.15,1.3-1.28-.03-4.06-2.23-8.65-3.63-7.57-9.11-19.01-1.61-24.96.33-.26,2.06-.78,3.58-1.23,5.34-1.58,9.44-2.98,9.66-5.23.16-1.61-1.76-2.63-2.39-2.97-.14-.08-.31-.1-.47-.08l-23.74,3.8c-.2.03-.38.15-.5.32-.8,1.17-.41,3.45.4,7.72,1.06,5.57,2.52,13.21-.53,17.22-1.28,1.68-3.24,2.61-5.99,2.84-3.62.28-6.3-.86-7.96-3.42-2.56-3.96-2.2-11.08.83-16.56.19-.34.09-.76-.23-.98-1.44-1.01-5.01-.43-11.71.78-8.09,1.46-19.18,3.45-24.21.4-2.16-1.31-6.45-10.98-10.23-19.52-3.44-7.77-6.69-15.1-9.04-18.19-.35-.46-.65-.91-.94-1.33-1.38-2.04-2.58-3.79-6.6-2.91-.28.06-.5.28-.57.55-4.53,18.29-3.02,33.1,4.76,46.61,19.79,34.37,49.46,56.06,78.57,74.37.52.33,1,1.4,1.48,2.43.64,1.42,1.38,3.02,2.63,4.01.84.66,2.2,1.84,3.78,3.21,10.09,8.73,19.4,16.32,22.36,13.5.16-.15.24-.35.23-.57-.06-1.86-.56-3.89-1.05-5.84-.82-3.29-1.59-6.4-.23-8.21.81-1.07,2.36-1.68,4.73-1.85.02.85-.25,2.73-.49,4.43-.85,5.91-2.12,14.84,1.51,18.24.98.92,2.24,1.38,3.75,1.38.6,0,1.24-.07,1.92-.22,4.03-.86,3.54-5.9,3.07-10.77-.38-3.93-.77-7.99,1.03-9.77.77-.76,1.93-1.08,3.54-.99Z"/>
  <path class="cls-1" d="M171.18,629.25c-3.23-5.52-6.29-10.74-6.59-15.41-.19-2.93,1.02-5.33,2.3-7.86.99-1.95,2.01-3.97,2.36-6.28,1.48-9.68-2.49-15.03-6.7-20.69-2.16-2.91-4.39-5.91-6.14-9.73-1.9-4.16-3.42-8.84-5.04-13.79-3.24-9.94-6.59-20.21-13.29-26.8-.2-.19-.48-.26-.74-.19-.26.08-.46.29-.52.56-2.86,13.22,5.09,27.13,12.78,40.58,4.89,8.55,9.51,16.62,10.7,23.66.62,3.66-.52,6.59-1.85,9.98-1.39,3.54-2.96,7.56-2.44,12.98.61,6.37,3.97,11.89,6.94,16.75,2.17,3.56,4.21,6.92,4.8,10,1.56,8.23-.89,17.51-3.47,27.34-3.89,14.79-7.92,30.08,1.82,42.9.14.19.36.3.6.3.02,0,.04,0,.06,0l29.09-2.2c.06,0,.12-.02.18-.04,10.68-3.49,3.46-29.04-2.35-49.58-2.69-9.52-5.01-17.74-4.87-21.44.1-2.6,1.34-5.48,2.65-8.54,1.84-4.29,3.93-9.15,3.61-14.72-.19-3.28-6.5-23.62-10.86-23.96-.17,0-.34.03-.48.12-5.36,3.58-3.25,7.54-1.38,11.02.92,1.71,1.86,3.48,2.13,5.32,1.13,7.69-.57,14.13-2.21,20.35-1.33,5.05-2.59,9.83-2.32,15,.17,3.15,2.62,11.96,5,20.49,2.04,7.31,4.54,16.3,4.57,18.49-2.13.14-4.34.71-6.48,1.26-5.1,1.31-9.93,2.55-13.48-1.77,4.59-8.56,9.15-26.76,8.94-35.89-.14-5.93-3.79-12.17-7.32-18.21Z"/>
  <path class="cls-1" d="M237.99,145.05c-4.61-2.19-6.39-8.16-8.1-13.94-1.19-4.02-2.43-8.17-4.64-10.99-1.59-2.03-9.69-8.77-13.02-7.08-2.21,1.12-1.19,4.76-.86,5.96,7.78,27.8,35.41,41.14,59.79,52.91l3.39,1.64c2.51,3.83.67,7.68-1.29,11.75-2.35,4.9-4.78,9.97,1.26,14.59.13.1.29.16.46.16.05,0,.11,0,.16-.02.22-.05.4-.19.5-.39l15.48-29.85c.16-.3.09-.67-.16-.9-3.3-3.06-6.67-3.4-9.38-3.68-3.95-.4-6.57-.67-7.36-8.69-.04-.37-.33-.65-.7-.68l-10.79-.64-2.11-5.14,16.33,2.03c.28.04.56-.09.72-.33l3.89-5.77c.19-.27.17-.64-.04-.89-4.11-5.07-8.5-10.23-12.76-15.22-12.93-15.17-26.3-30.85-35.06-47.96-.17-.34-.58-.5-.94-.36l-8.94,3.41c-.37.14-.56.54-.45.91,1.02,3.47,1.81,7.1,2.64,10.95,1.79,8.27,3.64,16.82,7.97,23.8.84,1.36,3.04,3.41,5.82,6.01,5.64,5.28,14.12,13.21,11.92,17.05-5.95,2.46-10.46,2.89-13.75,1.33Z"/>
  <path class="cls-1" d="M454.57,141.64c2.49-1.82,4.83-3.55,6.3-5.03,1.84-1.87,3.23-3.82,4.57-5.71,1.11-1.56,2.15-3.03,3.36-4.32,14.81-15.77,25.62-28.82,29.86-53.17,1.43-8.18,2.34-18.16-3.28-22.81-.13-.11-.3-.17-.48-.17-3.4,0-4.18,6.99-5.08,18.49-.38,4.88-.74,9.49-1.47,11.82-3.82,12.1-20.52,37.99-29.73,47.77-2.15,2.28-5.63,4.79-9.31,7.46-7.92,5.73-16.9,12.23-16.24,19.1.45,4.65,10.25,13.68,22.65,25.11,13.78,12.7,29.39,27.09,33.12,36.94,2.33,6.16-1.43,11.96-5.07,17.58-3.03,4.68-5.9,9.1-4.79,13.32.03.1.07.18.13.26l31.93,42.3c.15.2.37.3.6.3.14,0,.27-.04.4-.11,1.75-1.1,2.74-2.29,3.04-3.65.46-2.11-.89-4.17-2.19-6.16-.49-.74-.99-1.51-1.4-2.28-1.84-3.44-5.83-8.63-10.06-14.13-5.28-6.87-10.73-13.97-11.36-16.95-.78-3.7,1.17-7.14,3.44-11.12,4.21-7.4,9.45-16.6-1.08-32.07-4.64-6.82-27.28-28.9-34.27-35.3-1.49-1.37-3.89-2.77-6.43-4.25-4.18-2.45-8.93-5.22-9.65-7.98-1.34-5.09,6.34-10.72,12.51-15.24Z"/>
  <path class="cls-1" d="M276.64,248.68c2.44-2.49,4.81-3.6,7.23-3.42,5.3.42,10.13,7.27,14,12.78,2.43,3.46,4.54,6.44,6.53,7.73,1.71,1.11,3.76,1.19,5.62.22,1.52-.79,2.65-2.15,2.7-3.25.2-5.13-6.5-12.4-14.26-20.82-10.77-11.7-22.99-24.95-19.21-35.15.09-.23.05-.48-.08-.69-.14-.2-.36-.32-.61-.33-2.71-.05-4.58.7-5.57,2.24-2.29,3.54.84,10.17,3.13,15.02.83,1.75,1.61,3.41,1.72,4.14.92,5.92-1.63,8.34-4.58,11.13-1.59,1.51-3.23,3.06-4.53,5.28-8.15,13.86-14.38,28.38-18.03,41.99-6.6,24.6-8.67,45.69-6.33,64.47.04.31.26.56.56.64.67.17,1.3.26,1.86.26,1,0,1.84-.27,2.49-.81,2.09-1.72,1.86-5.72,1.64-9.59-.12-2.04-.24-4.15,0-5.7,4.86-30.58,10.15-58.18,25.71-86.15Z"/>
  <path class="cls-1" d="M440.05,134.33c1-1.12,1.86-2.08,2.58-2.79,11.79-11.65,27.59-32.2,35.98-46.77,1.03-1.79,4.74-9.78,2.73-13.42-.42-.77-1.31-1.71-3.12-1.78h-.02c-2.53,0-26.74,18.99-28.13,20.41-3.43,3.5-29.58,46.93-28.82,50.9.02.1.06.19.11.27,1.28,1.95,2.87,3,4.72,3.14.13.01.27.02.4.02,4.67,0,9.8-5.74,13.57-9.96Z"/>
  <path class="cls-1" d="M586.81,618.36c10.6-1.25,20.84-7.43,28.11-16.94,7.3-9.57,10.65-21.12,9.25-31.79,19.28-5.85,29.77-18.21,32.98-38.84.36-2.33-1.07-4.55-3.32-5.17-1.2-.33-2.45-.17-3.52.45-1.07.62-1.83,1.62-2.14,2.82-.33,1.27-.65,2.6-.97,3.97-2.14,8.93-4.56,19.04-12.24,22.37-2.91,1.26-6.1,1.03-9.48.78-4.21-.31-8.56-.62-12.44,2.12-.28.2-.39.56-.27.88,5,13,1.78,28.68-8,39.01-8.49,8.96-20.03,11.95-31.68,8.19-.25-.09-.54-.02-.74.16-2.78,2.55-3.71,4.9-2.75,6.99,1.71,3.73,9.11,5.15,14.45,5.15,1.01,0,1.95-.05,2.76-.15Z"/>
  <path class="cls-1" d="M475.23,343.33c4.65,2.15,9.93,4.59,13.79,2.15,4.78-3.01,4.09-11.47.66-17.92-3.97-7.45-12.13-13.68-23.14-8.81-3.33,1.47-13.46,9.12-14.86,12.38-2.34,5.45-2.21,25.27,4.55,31.67,1.43,1.35,3.08,2.03,4.9,2.03,1.34,0,2.76-.37,4.25-1.1.28-.14.44-.43.42-.74-.2-2.28-.6-4.42-1-6.49-1.02-5.37-1.9-10.01,1-15.4,2.04-1.21,5.63.45,9.43,2.21Z"/>
  <path class="cls-1" d="M349.45,214.83l19.56,11.45c.23.14.52.14.75,0,.23-.13.38-.38.38-.65.16-13.4-6.3-13.96-11.5-14.41-1.94-.17-3.78-.33-5.12-1.1-.43-.25-.68-.98-.97-1.84-.84-2.48-2.12-6.21-10.27-4.52-4.56.95-22.25,13.86-23.77,18.06-.54,1.49-.53,2.59.02,3.36.83,1.17,2.53,1.18,4.19,1.16,1.67,0,2.8.04,3.06.68v.3c-.83,17.99-.85,42.51,8.42,47.65,1.13.62,2.35.94,3.66.94,2.38,0,5.06-1.02,8.01-3.06.2-.14.32-.36.32-.6,0-.24-.1-.47-.29-.62-8.4-6.43-12.97-16.49-12.53-27.59.47-11.93,6.47-22.83,16.08-29.24Z"/>
  <path class="cls-1" d="M352.07,272.61c2.2,1.24,4.88,1.7,7.68,1.7,6.94,0,14.59-2.88,17.39-4.04.28-.12.47-.4.46-.7l-.29-36.78c0-.41-.34-.75-.75-.75h-7.15c-.21,0-.42.09-.56.25-.14.16-.21.37-.19.58,1.05,9.37-4.03,11.15-9.92,13.21-6.49,2.27-13.85,4.85-11.62,18.98.55,3.48,2.21,6.02,4.94,7.55Z"/>
  <path class="cls-1" d="M441.13,63.83s.05,0,.07,0c9.83-.98,18.12-13.57,25.44-24.68,5.95-9.04,11.58-17.58,16.74-18.04,3.21-.29,4.11,3.1,5.2,8.71,1.13,5.82,2.5,13.08,9.96,12.51.36-.03.65-.31.69-.67.8-7.11-4.98-33.4-13.08-40-1.89-1.54-3.82-2-5.74-1.38-1.22.4-3.87,5.08-11.76,19.9-3.78,7.1-7.69,14.45-9.45,16.96-2.07,2.95-4.83,5.61-7.51,8.18-5.17,4.97-10.51,10.1-11.31,17.69-.02.23.05.45.21.61.14.14.33.22.53.22Z"/>
  <path class="cls-1" d="M645.4,452.38c2.79,7.83,3.37,23.83,1.89,31.45-.84,4.31-2.37,7.29-3.6,9.69-3.01,5.87-3.92,8.81,6.11,17.16.67.56,1.27,1.24,1.84,1.89,1.4,1.6,2.85,3.25,5.46,3.25.52,0,1.08-.06,1.69-.21.26-.06.47-.26.55-.52,1.57-5.22-1.15-9.32-3.55-12.94-1.7-2.56-3.3-4.97-3.35-7.53-.05-3.16,1.57-6.58,3.3-10.2,1.74-3.65,3.53-7.43,3.81-11.34,1.06-15.24-10.08-41.42-27.04-44.97-.26-.05-.53.03-.71.23-2.94,3.21,2.65,9.96,8.05,16.48,2.56,3.09,4.98,6.01,5.53,7.57Z"/>
  <path class="cls-1" d="M437.91,353.72c.33.16.75.29,1.22.29.7,0,1.54-.28,2.47-1.12.1-.09.18-.21.21-.34,1.14-3.89,1.49-8.22,1.84-12.4.34-4.16.66-8.09,1.69-11.57.92-3.11,3.2-6.01,5.41-8.82,2.8-3.57,5.45-6.94,5.03-10.43-.24-1.95-1.39-3.71-3.53-5.38-.15-.12-.34-.16-.53-.16-12.95,1.21-19.6,12.97-20.43,24.09-.17,2.33,1.23,23.21,6.62,25.84Z"/>
  <path class="cls-1" d="M479.07,280.98c-.7.06-1.37.12-1.93.02-2.08-.4-4.34-.93-6.72-1.49-10.2-2.4-21.75-5.11-28.07.29-3.48,2.97-4.91,7.95-4.36,15.21.02.22.12.42.3.54.13.1.29.15.45.15.05,0,.1,0,.16-.02l45.41-9.57c.4-.09.66-.47.58-.88-.9-4.69-3.74-4.44-5.81-4.25Z"/>
  <path class="cls-1" d="M481.39,440.24c-1.7,1.22-2.42,3.08-2.07,5.37,1.45,9.41,19.88,24.45,27.66,27,.85.28,1.58.42,2.19.42.76,0,1.36-.22,1.78-.64,2.24-2.24-5.89-15.79-12.38-23.44-5.06-5.96-12.15-12.31-17.19-8.7Z"/>
  <path class="cls-1" d="M599.06,488.98c7.38,4.78,19.11,10.7,23.18,10.7.55,0,.96-.11,1.2-.35.11-.11.18-.25.21-.4.91-5.16-.68-6.9-3.57-10.06l-.15-.17c-1.9-2.08-29.8-19.34-34.72-19.45-.46,0-.81.11-1.05.35-.07.07-.13.17-.17.26-2.48,6.52,8.38,14.77,15.08,19.11Z"/>
  <path class="cls-1" d="M349.89,370.83l5.95,3.66c.12.08.26.11.39.11.25,0,.5-.13.64-.36,3.46-5.56,9.01-9.97,14.38-14.24,3.69-2.93,7.18-5.71,10.08-8.85.57-.62,1.11-1.02,1.59-1.37,1.74-1.29,2.6-2.19,1.55-7.16-.04-.2-.17-.38-.35-.49-.18-.11-.39-.14-.59-.08-14.47,4.13-31.41,11.04-33.99,28.01-.05.3.09.59.35.75Z"/>
  <path class="cls-1" d="M501.63,392.8c-1.6-1.98-4.87-2.92-10.29-2.96h0c-.25,0-.48.12-.62.32-.14.21-.17.47-.08.7,3.4,8.78,3.57,16.53,3.74,24.74.11,5.02.22,10.2,1.13,15.65.06.36.37.62.73.63l6.98.09h.01c.31,0,.59-.19.7-.48,2.68-6.92,1.18-12-.41-17.38-.75-2.53-1.52-5.14-1.9-8.08-.21-1.64.18-3.5.55-5.31.59-2.84,1.2-5.77-.54-7.92Z"/>
  <path class="cls-1" d="M388.01,272.93c-.64.64-.95,1.45-.9,2.41.21,4.44,8.11,11.31,16.18,17.97,1.76,1.46,3.16,2.61,3.9,3.33,1.59,1.54,2.88,3.51,4.12,5.42,2.62,4.03,5.32,8.18,10.95,8.18.7,0,1.45-.06,2.25-.2.4-.07.67-.44.62-.84-1.19-8.59-7.39-13.37-13.38-18-2.08-1.6-4.22-3.26-6.06-5.02-1.59-1.52-2.87-3.52-4.1-5.45-2.91-4.56-5.92-9.27-13.16-7.99-.15.03-.29.1-.4.21Z"/>
  <path class="cls-1" d="M488.8,290.91h0c-8.67,0-25.85,3.35-29.08,7.15-.11.13-.18.31-.18.48,0,.73.32,1.77,1.85,2.64,2.47,1.4,7.61,1.97,13.08,1.97,7.57,0,15.74-1.09,18.21-2.57.18-.11.31-.29.35-.5l1.42-7.35c.04-.22-.02-.46-.17-.63-.44-.52-1.49-1.21-5.49-1.21Z"/>
  <path class="cls-1" d="M371.03,201.08c.12.18.31.31.52.34l7.29,1.05s.07,0,.11,0c.36,0,.68-.27.74-.64,2.27-14.79-.38-26.35-4.26-28.99-.98-.67-2.04-.73-2.98-.18-3.32,1.95-4.6,11.36-3.42,25.17.01.12.05.24.12.34l1.88,2.9Z"/>
  <path class="cls-1" d="M393.09,196.39c.92.66,2.04,1,3.34,1s2.72-.32,4.34-.95c.32-.12.51-.44.47-.78l-2.6-24.92c-.04-.38-.35-.67-.73-.67l-6.97-.17c-.2.04-.42.08-.57.24-.15.16-.22.37-.2.58.2,2.13.04,4.98-.12,7.99-.38,6.99-.8,14.91,3.03,17.69Z"/>
  <path class="cls-1" d="M358.95,197.74c.31,0,.62-.02.95-.05.34-.04.61-.29.66-.63.13-.82.53-2.32,1.03-4.21,2.48-9.27,4.63-18.61,1.41-21.94-1.05-1.09-2.56-1.42-4.49-.97-4.6,1.06-7.9,13.06-6.67,20.4.81,4.82,3.32,7.41,7.11,7.41Z"/>
  <path class="cls-1" d="M595.98,504.8c-1.03,1.01-1.38,2.27-1.02,3.65,1.47,5.61,14.56,12.36,21.2,14.16,1.36.37,2.34.5,3.04.5,1.01,0,1.46-.28,1.73-.55,1.16-1.16,2.46-3.74-1.81-8.05-5.52-5.57-19.97-12.82-23.12-9.72Z"/>
  <path class="cls-1" d="M337.13,195.27c.2,0,.4-.08.55-.23,6.45-6.8,9.57-15.71,8.56-24.46-.02-.21-.14-.4-.31-.53-.17-.12-.39-.16-.6-.12l-7.2,1.61c-.35.08-.6.4-.59.76.08,2.49-1.05,5.3-2.16,8.01-2.02,4.98-4.31,10.63,1.3,14.81.13.1.29.15.45.15Z"/>
  <path class="cls-1" d="M600.47,538.81c1.28.57,2.17.84,2.79.84.42,0,.72-.12.95-.37.1-.11.17-.26.19-.41.94-6.94-3.76-12.71-13.98-17.14-.29-.13-.65-.31-1.04-.5-1.88-.94-4.46-2.24-6.27-1.23-.95.53-1.51,1.59-1.65,3.16-.4,4.49,14.12,13.48,19,15.64Z"/>
  <path class="cls-1" d="M409.77,192.85c.1.04.2.06.3.06.13,0,.26-.03.37-.1l6.88-3.95c.29-.16.43-.5.36-.82l-4.54-19.94c-.05-.23-.2-.42-.41-.51-.21-.1-.46-.09-.66.01-8.13,4.16-5.48,14.19-3.54,21.52.3,1.14.59,2.21.81,3.2.05.23.21.42.43.52Z"/>
  <path class="cls-1" d="M419.06,89.88c.3.32.69.46,1.15.46,1.8,0,4.65-2.14,6.95-4.19,5.88-5.21,13.33-14.51,9.73-18.76-.63-.74-1.83-1.37-4.02-.15-5.73,3.19-15.47,17.77-13.98,22.36.03.1.09.2.16.28Z"/>
  <path class="cls-1" d="M243.18,437.3c1.17,0,2.29-.02,3.32-.06,9.99-.37,25.43-2.77,25.91-5.53.03-.15,0-.31-.06-.45-2.22-4.75-4.52-5.26-8.7-6.18l-.22-.05c-2.75-.6-35.5,1.3-39.59,4.04-.38.25-.6.55-.66.9-.02.1-.01.21.01.31,1.5,5.89,12.03,7.03,19.99,7.03Z"/>
  <path class="cls-1" d="M310.45,593.96c-.05.12-.09.21-.13.29-.26-.13-.64-.35-1.18-.7-1.28-.82-2.22-1.35-2.88-1.61-.79-.31-1.59-.42-2.4-.33-1.92.22-3.3,1.3-3.95,3.04-.35.78-.48,1.59-.39,2.42.06.49.13.9.19,1.19.37,1.93.95,3.41,1.76,4.55.85,1.18,2.07,2.08,3.65,2.67,1.76.64,3.22.96,4.45.96.25,0,.5-.01.73-.04,1.37-.16,2.88-.79,4.62-1.95,1.66-1.11,2.88-2.15,3.73-3.2.86-1.06,1.59-2.46,2.24-4.29.62-1.84,1-3.14,1.16-3.94.33-1.5.62-4.67.9-9.7.11-2.15.24-3.12.33-3.56.11-.53.14-1.08.09-1.62.02-.39.12-1.9.3-4.5.25-2.99.3-5.04.16-6.27-.15-1.28-.57-2.65-1.23-4.01l-1.12-2.53-1.1.12c-.65.07-1.63.17-2.94.29-1.33.12-2.33.22-3,.3l-.72.08-.87,1.38c-.44.65-.75,1.32-.92,1.98-.09.37-.24,1.12-.46,3.36-.15,1.72-.15,3.56,0,5.47.29,3.07.3,7.51.03,13.19-.14,3.14-.51,5.48-1.09,6.95Z"/>
  <path class="cls-1" d="M372.27,579.97c-.91-7.91-1.79-12.82-2.68-15.01-.77-1.88-2.18-3.18-4.17-3.86-.87-.32-1.54-.43-2.12-.37-.58.07-1.21.33-2.01.86-.43.3-1.23,1.04-3.86,4.27-1.92,2.36-3.36,4.27-4.26,5.69-.01.02-.03.04-.04.06-.51-.5-.88-.83-1.12-1.02-1.09-.81-2.31-2.07-3.63-3.73-.86-1.08-1.47-1.76-1.93-2.14-.55-.46-1.3-.8-2.26-1.03-.87-.24-1.79-.3-2.73-.2-1.9.22-3.27,1.23-3.96,2.89-.25.54-.5,1.55-.7,5.16-.13,2.53-.43,5.48-.87,8.78-.71,5.22-.9,9.09-.59,11.85l.12,1.06c.28,2.08.68,3.46,1.24,4.33,1.19,1.91,2.71,2.38,3.93,2.38.19,0,.38-.01.56-.03,1.22-.14,2.88-.81,3.83-3.27.65-1.74,1.05-4.93,1.23-9.74.14-3.08.25-5.18.35-6.62.7.76,1.5,1.45,2.4,2.06,1.63,1.1,3,1.58,4.2,1.43,2.02-.23,4.52-2.27,8.1-6.61.22-.26.42-.5.59-.72.2,1.44.49,3.62.91,6.92.63,5.16,1,8.01,1.16,8.96.19,1.15.48,2.01.89,2.64.99,1.48,2.55,2.18,4.37,1.97,1.68-.19,2.9-1.13,3.42-2.54.2-.45.41-1.22.36-4.61.03-2.12-.2-5.34-.71-9.82Z"/>
  <g>
    <path class="cls-1" d="M36.47,831.24c4.84-.24,10.22-2.16,8.4-9.73l-11.22-46.98c-1.37-5.59-6.2-7.44-11.32-7.18s-9.95,2.6-11.22,8.32L.34,823.76c-1.73,7.75,3.56,9.13,8.4,8.88,10.31-.52,7.57-10.7,11.04-10.87l5.66-.29c3.47-.18.73,10.28,11.04,9.75ZM24.15,809.23l-3.29.17c-1,.05-.82-.96-.73-1.7l2.46-17.74,2.28,17.5c.09.72.18,1.72-.73,1.77Z"/>
    <path class="cls-1" d="M80.18,794.17l-10.4-7.14c-1-.68-1.73-2.1-1.73-3.11,0-1.73,1-3.25,3.01-3.35,2.37-.12,4.29,1.7,7.12,1.56,3.38-.17,5.66-3.11,5.66-6.31,0-8.85-8.12-11.18-15.79-10.79-10.31.52-18.98,8.26-18.98,18.85,0,5.93,2.65,11.55,7.67,15.13l8.21,5.97c1.28.85,3.1,2.58,3.1,4.31,0,2.19-1.64,3.28-3.65,3.38-2.65.13-4.38-4.07-8.85-3.84s-7.12,3.83-7.12,8.3c0,8.85,9.58,13.02,17.7,12.61,12.05-.61,20.9-9.36,20.9-21.68,0-5.38-2.01-10.58-6.84-13.89Z"/>
    <path class="cls-1" d="M105.74,810.58c-2.65.13-4.38-4.07-8.85-3.84s-7.12,3.83-7.12,8.3c0,8.85,9.58,13.02,17.7,12.61,12.05-.61,20.9-9.36,20.9-21.68,0-5.38-2.01-10.58-6.84-13.89l-10.4-7.14c-1-.68-1.73-2.1-1.73-3.11,0-1.73,1-3.25,3.01-3.35,2.37-.12,4.29,1.7,7.12,1.56,3.38-.17,5.66-3.11,5.66-6.31,0-8.85-8.12-11.18-15.79-10.79-10.31.52-18.98,8.26-18.98,18.85,0,5.93,2.65,11.55,7.67,15.13l8.21,5.97c1.28.85,3.1,2.58,3.1,4.31,0,2.19-1.64,3.28-3.65,3.38Z"/>
    <path class="cls-1" d="M154.93,760.64c-17.98.91-23.36,18.06-23.36,33.49s5.38,32.03,23.36,31.12,23.36-18.06,23.36-33.49-5.38-32.03-23.36-31.12ZM154.93,808.73c-4.75.24-5.38-7.67-5.38-15.52s.64-15.82,5.38-16.06,5.38,7.67,5.38,15.52-.64,15.82-5.38,16.06Z"/>
    <path class="cls-1" d="M221.09,813.14c0-7.39-4.93-8.42-10.22-8.15-7.67.39-9.76-8.27-9.76-14.38s2.1-14.98,9.76-15.37c5.29-.27,10.22-1.8,10.22-9.19,0-6.66-5.2-8.5-11.77-8.16-17.52.89-26.46,17.22-26.46,33.64s8.94,31.85,26.46,30.97c6.57-.33,11.77-2.69,11.77-9.36Z"/>
    <path class="cls-1" d="M234.69,756.6c-4.47.23-9.03,3.01-9.03,8.12v49.28c0,5.11,4.47,7.44,8.94,7.21s9.03-3.01,9.03-8.12v-49.28c0-5.11-4.47-7.44-8.94-7.21Z"/>
    <path class="cls-1" d="M281.41,761.99c-1.37-5.59-6.2-7.44-11.32-7.18s-9.95,2.6-11.22,8.32l-10.77,48.09c-1.73,7.75,3.56,9.13,8.4,8.88,10.31-.52,7.57-10.7,11.04-10.87l5.66-.29c3.47-.18.73,10.28,11.04,9.75,4.84-.24,10.22-2.16,8.4-9.73l-11.22-46.98ZM271.92,796.7l-3.29.17c-1,.05-.82-.96-.73-1.7l2.46-17.74,2.28,17.5c.09.72.18,1.72-.73,1.77Z"/>
    <path class="cls-1" d="M332.15,807.52c0-7.39-4.93-8.42-10.22-8.15-7.67.39-9.76-8.27-9.76-14.38s2.1-14.98,9.76-15.37c5.29-.27,10.22-1.8,10.22-9.19,0-6.66-5.2-8.5-11.77-8.16-17.52.89-26.46,17.22-26.46,33.64s8.94,31.85,26.46,30.97c6.57-.33,11.77-2.69,11.77-9.36Z"/>
    <path class="cls-1" d="M345.75,750.98c-4.47.23-9.03,3.01-9.03,8.12v49.28c0,5.11,4.47,7.44,8.94,7.21,4.47-.23,9.03-3.01,9.03-8.12v-49.28c0-5.11-4.47-7.44-8.94-7.21Z"/>
    <path class="cls-1" d="M386.63,744.53l8.03-8.25c3.65-3.83.64-6.88-2.65-7.26-2.92-.31-5.75,1.29-7.48,4.76l-4.29,8.61c-1.19,2.52-.09,3.93,1.46,4.12,1.37.3,3.29-.35,4.93-1.98Z"/>
    <path class="cls-1" d="M360.17,782.56c0,15.42,5.38,32.03,23.36,31.12s23.36-18.06,23.36-33.49-5.38-32.03-23.36-31.12-23.36,18.06-23.36,33.49ZM383.53,765.59c4.74-.24,5.38,7.67,5.38,15.52s-.64,15.82-5.38,16.06-5.38-7.67-5.38-15.52.64-15.82,5.38-16.06Z"/>
    <path class="cls-1" d="M476.97,776.65c0-16.06-8.21-31.52-25.09-30.67l-10.13.51c-6.84.35-9.31,5.12-9.31,11.51v41.79c0,6.39,2.46,10.92,9.31,10.57l10.13-.51c16.88-.85,25.09-17.15,25.09-33.21ZM451.7,794.35c-.73.04-1.28-.39-1.28-.94v-31.48c0-1.09.27-1.2,1-1.24,7.03-.36,7.03,12.97,7.03,17.07,0,6.02-1.64,16.33-6.75,16.59Z"/>
    <path class="cls-1" d="M504.08,759.58l5.38-.27c5.11-.26,7.39-4.66,7.39-8.41,0-5.11-2.74-8.07-7.39-7.84l-17.7.9c-6.84.35-9.31,5.12-9.31,11.51v41.79c0,6.39,2.46,10.92,9.31,10.57l17.7-.9c5.11-.26,7.39-4.66,7.39-8.4,0-5.11-2.74-8.08-7.39-7.84l-5.38.27c-2.19.11-3.65-1.28-3.65-3.74s1.46-4,3.65-4.11l5.02-.25c4.38-.22,6.57-4.26,6.57-8.18,0-4.29-2.19-7.74-6.57-7.52l-5.02.25c-2.19.11-3.65-1.28-3.65-3.74s1.46-4,3.65-4.11Z"/>
    <path class="cls-1" d="M565.86,788.85v-41.34c0-5.11-4.47-7.44-8.94-7.21s-9.03,3.01-9.03,8.12v32.58c0,6.11,0,8.49-6.94,8.75-2.83.14-5.38,2.65-5.38,7.21,0,7.12,7.39,8.66,13.32,8.36,9.86-.5,16.97-6.43,16.97-16.46Z"/>
    <path class="cls-1" d="M571.34,771.87c0,15.42,5.38,32.03,23.36,31.12,17.98-.91,23.36-18.06,23.36-33.49s-5.38-32.03-23.36-31.12-23.36,18.06-23.36,33.49ZM600.08,770.42c0,7.85-.64,15.82-5.38,16.06s-5.38-7.67-5.38-15.52.64-15.82,5.38-16.06,5.38,7.67,5.38,15.52Z"/>
    <path class="cls-1" d="M654.2,793.42l11.5-50.77c1-4.43-1.64-7.77-8.85-7.4-3.1.16-7.39,1.47-8.12,5.61l-5.75,31.32-6.3-30.71c-.82-4.07-5.02-4.95-8.12-4.79-7.21.36-9.95,3.97-8.85,8.3l12.32,49.57c1,4.24,5.02,6.59,10.95,6.29,4.01-.2,9.95-1.78,11.22-7.41Z"/>
    <path class="cls-1" d="M678.93,798.37l17.7-.9c5.11-.26,7.39-4.66,7.39-8.4,0-5.11-2.74-8.08-7.39-7.84l-5.38.27c-2.19.11-3.65-1.28-3.65-3.74s1.46-4,3.65-4.11l5.02-.25c4.38-.22,6.57-4.26,6.57-8.18,0-4.29-2.19-7.74-6.57-7.52l-5.02.25c-2.19.11-3.65-1.28-3.65-3.74s1.46-4,3.65-4.11l5.38-.27c5.11-.26,7.39-4.66,7.39-8.41,0-5.11-2.74-8.07-7.39-7.84l-17.7.9c-6.84.35-9.31,5.12-9.31,11.51v41.79c0,6.39,2.46,10.92,9.31,10.57Z"/>
    <path class="cls-1" d="M738.52,760.86l-10.4-7.14c-1-.68-1.73-2.1-1.73-3.11,0-1.73,1-3.25,3.01-3.35,2.37-.12,4.29,1.7,7.12,1.56,3.38-.17,5.66-3.11,5.66-6.31,0-8.85-8.12-11.18-15.79-10.79-10.31.52-18.98,8.26-18.98,18.85,0,5.93,2.65,11.55,7.67,15.13l8.21,5.97c1.28.85,3.1,2.58,3.1,4.31,0,2.19-1.64,3.28-3.65,3.38-2.65.13-4.38-4.07-8.85-3.84s-7.12,3.83-7.12,8.3c0,8.85,9.58,13.02,17.7,12.61,12.05-.61,20.9-9.36,20.9-21.68,0-5.38-2.01-10.58-6.84-13.89Z"/>
    <path class="cls-1" d="M79.09,867.62c-.55-6.27-5.66-8.56-12.05-8.24-5.57.28-10.49,2.72-11.77,8.53l-3.83,17.62-3.83-17.24c-1.28-5.69-6.21-7.63-11.77-7.34-6.39.32-11.59,3.14-12.05,9.46l-3.19,47.07c-.46,6.23,1.82,8.76,8.03,8.45,3.65-.18,8.03-1.87,8.3-6.08l1.55-25.27,5.48,24.18c.73,3.25,2.55,6.26,8.58,5.95,4.84-.24,7.03-2.82,7.66-6.78l4.2-24.58,2.46,24.97c.46,4.17,4.66,5.42,8.3,5.24,6.21-.31,8.58-3.08,8.03-9.26l-4.11-46.7Z"/>
    <path class="cls-1" d="M121.07,864.41c-1.37-5.59-6.2-7.44-11.32-7.18s-9.95,2.6-11.22,8.32l-10.77,48.09c-1.73,7.75,3.56,9.13,8.4,8.88,10.31-.52,7.57-10.7,11.04-10.87l5.66-.29c3.47-.18.73,10.28,11.04,9.75,4.84-.24,10.22-2.16,8.4-9.73l-11.22-46.98ZM111.58,899.11l-3.29.17c-1,.05-.82-.96-.73-1.7l2.46-17.74,2.28,17.5c.09.72.18,1.72-.73,1.77Z"/>
    <path class="cls-1" d="M167.61,884.04l-10.4-7.14c-1-.68-1.73-2.1-1.73-3.11,0-1.73,1-3.25,3.01-3.35,2.37-.12,4.29,1.7,7.12,1.56,3.38-.17,5.66-3.11,5.66-6.31,0-8.85-8.12-11.18-15.79-10.79-10.31.52-18.98,8.26-18.98,18.85,0,5.93,2.65,11.55,7.67,15.13l8.21,5.97c1.28.85,3.1,2.58,3.1,4.31,0,2.19-1.64,3.28-3.65,3.38-2.65.13-4.38-4.07-8.85-3.84-4.65.24-7.12,3.83-7.12,8.3,0,8.85,9.58,13.02,17.7,12.61,12.05-.61,20.9-9.36,20.9-21.68,0-5.38-2.01-10.58-6.84-13.89Z"/>
    <path class="cls-1" d="M218.99,852.06l-10.13.51c-6.84.35-9.31,5.12-9.31,11.51v41.79c0,6.39,2.46,10.92,9.31,10.57l10.13-.51c16.88-.85,25.09-17.15,25.09-33.21s-8.21-31.52-25.09-30.67ZM218.81,900.44c-.73.04-1.28-.39-1.28-.94v-31.48c0-1.09.27-1.2,1-1.24,7.03-.36,7.03,12.97,7.03,17.07,0,6.02-1.64,16.33-6.75,16.59Z"/>
    <path class="cls-1" d="M271.19,865.66l5.38-.27c5.11-.26,7.39-4.66,7.39-8.41,0-5.11-2.74-8.07-7.39-7.84l-17.7.9c-6.84.35-9.31,5.12-9.31,11.51v41.79c0,6.39,2.46,10.92,9.31,10.57l17.7-.9c5.11-.26,7.39-4.66,7.39-8.4,0-5.11-2.74-8.08-7.39-7.84l-5.38.27c-2.19.11-3.65-1.28-3.65-3.74s1.46-4,3.65-4.11l5.02-.25c4.38-.22,6.57-4.26,6.57-8.18,0-4.29-2.19-7.74-6.57-7.52l-5.02.25c-2.19.11-3.65-1.28-3.65-3.74s1.46-4,3.65-4.11Z"/>
    <path class="cls-1" d="M343.56,876.88c-.91-.5-.73-.97,0-1.64,3.74-3.47,6.02-7.97,6.02-13.08,0-12.59-11.59-16.11-22.36-15.57l-10.22.52c-6.84.35-9.31,5.12-9.31,11.51v41.79c0,6.39,2.46,10.92,9.31,10.57l9.03-.46c12.59-.64,26.01-3.6,26.01-18.75,0-7.12-2.19-11.66-8.49-14.9ZM328.41,861.22c2.74-.14,3.65,2.28,3.65,4.74,0,2.01-.91,4.7-3.65,4.84s-3.65-2.46-3.65-4.47c0-2.46.91-4.97,3.65-5.11ZM328.69,895.42c-3.19.16-3.92-3.63-3.92-5.73,0-2.74,1.37-5.27,3.92-5.4s3.92,2.27,3.92,5-1,5.98-3.92,6.13Z"/>
    <path class="cls-1" d="M388.91,850.86c-1.37-5.59-6.2-7.44-11.32-7.18-5.11.26-9.95,2.6-11.22,8.32l-10.77,48.09c-1.73,7.75,3.56,9.13,8.4,8.88,10.31-.52,7.57-10.7,11.04-10.87l5.66-.29c3.47-.18.73,10.28,11.04,9.75,4.84-.24,10.22-2.16,8.4-9.73l-11.22-46.98ZM379.42,885.56l-3.29.17c-1,.05-.82-.96-.73-1.7l2.46-17.74,2.28,17.5c.09.72.18,1.72-.73,1.77Z"/>
    <path class="cls-1" d="M441.93,876.19c3.92-3.3,6.2-8.53,6.2-16.38,0-11.04-8.03-18.94-19.35-18.37l-14.42.73c-6.84.35-9.31,5.12-9.31,11.51v45.54c0,5.11,4.47,7.44,8.94,7.21s9.03-3.01,9.03-8.12v-15.6c0-1.37.91-1.41,1.37-1.44,1.28-.06,2.74,2.32,3.83,4.73.64,1.43,2.46,6.54,3.47,12.6.91,5.43,5.38,6.66,9.58,6.45s7.39-2.66,7.39-7.04c0-5.66-1.19-11.99-3.74-17.42-.73-1.6-1.92-3.1-3.01-4.41ZM425.96,867.96c-2.83.14-4.2-2.25-4.2-5.72s1.37-6,4.2-6.14c3.19-.16,4.29,2.7,4.29,5.72s-1.1,5.99-4.29,6.15Z"/>
    <path class="cls-1" d="M489.57,869.49c-.91-.5-.73-.97,0-1.64,3.74-3.47,6.02-7.97,6.02-13.08,0-12.59-11.59-16.11-22.36-15.57l-10.22.52c-6.84.35-9.31,5.12-9.31,11.51v41.79c0,6.39,2.46,10.92,9.31,10.57l9.03-.46c12.59-.64,26.01-3.6,26.01-18.75,0-7.12-2.19-11.66-8.49-14.9ZM474.42,853.83c2.74-.14,3.65,2.28,3.65,4.74,0,2.01-.91,4.7-3.65,4.84s-3.65-2.46-3.65-4.47c0-2.46.91-4.97,3.65-5.11ZM474.7,888.04c-3.19.16-3.92-3.63-3.92-5.73,0-2.74,1.37-5.27,3.92-5.4s3.92,2.27,3.92,5-1,5.98-3.92,6.13Z"/>
    <path class="cls-1" d="M524.25,852.86l5.38-.27c5.11-.26,7.39-4.66,7.39-8.41,0-5.11-2.74-8.07-7.39-7.84l-17.7.9c-6.84.35-9.31,5.12-9.31,11.51v41.79c0,6.39,2.46,10.92,9.31,10.57l17.7-.9c5.11-.26,7.39-4.66,7.39-8.4,0-5.11-2.74-8.08-7.39-7.84l-5.38.27c-2.19.11-3.65-1.28-3.65-3.74s1.46-4,3.65-4.11l5.02-.25c4.38-.22,6.57-4.26,6.57-8.18,0-4.29-2.19-7.74-6.57-7.52l-5.02.25c-2.19.11-3.65-1.28-3.65-3.74s1.46-4,3.65-4.11Z"/>
    <path class="cls-1" d="M578.46,869.28c3.92-3.3,6.2-8.53,6.2-16.38,0-11.04-8.03-18.94-19.35-18.37l-14.42.73c-6.84.35-9.31,5.12-9.31,11.51v45.54c0,5.11,4.47,7.44,8.94,7.21s9.03-3.01,9.03-8.12v-15.6c0-1.37.91-1.41,1.37-1.44,1.28-.06,2.74,2.32,3.83,4.73.64,1.43,2.46,6.54,3.47,12.6.91,5.43,5.38,6.66,9.58,6.45s7.39-2.66,7.39-7.04c0-5.66-1.19-11.99-3.74-17.42-.73-1.6-1.92-3.1-3.01-4.41ZM562.49,861.05c-2.83.14-4.2-2.25-4.2-5.72s1.37-6,4.2-6.14c3.19-.16,4.29,2.7,4.29,5.72s-1.1,5.99-4.29,6.15Z"/>
    <path class="cls-1" d="M622.53,839.04c-1.37-5.59-6.2-7.44-11.32-7.18-5.11.26-9.95,2.6-11.22,8.32l-10.77,48.09c-1.73,7.75,3.56,9.13,8.4,8.88,10.31-.52,7.57-10.7,11.04-10.87l5.66-.29c3.47-.18.73,10.28,11.04,9.75,4.84-.24,10.22-2.16,8.4-9.73l-11.22-46.98ZM613.04,873.74l-3.29.17c-1,.05-.82-.96-.73-1.7l2.46-17.74,2.28,17.5c.09.72.18,1.72-.73,1.77Z"/>
    <path class="cls-1" d="M673.18,828.72c-4.47.23-9.03,3.01-9.03,8.12v20.17l-5.02-15.35c-2.46-7.45-3.74-12.04-11.5-11.65-4.65.24-9.4,2.94-9.4,8.14v49.28c0,5.11,4.47,7.44,8.94,7.21s9.03-3.01,9.03-8.12v-19.16l6.84,19.37c1.73,4.84,5.38,6.85,10.31,6.6,4.38-.22,8.76-3.09,8.76-8.11v-49.28c0-5.11-4.47-7.44-8.94-7.21Z"/>
    <path class="cls-1" d="M718.44,856.18l-10.4-7.14c-1-.68-1.73-2.1-1.73-3.11,0-1.73,1-3.25,3.01-3.35,2.37-.12,4.29,1.7,7.12,1.56,3.38-.17,5.66-3.11,5.66-6.31,0-8.85-8.12-11.18-15.79-10.79-10.31.52-18.98,8.26-18.98,18.85,0,5.93,2.65,11.55,7.67,15.13l8.21,5.97c1.28.85,3.1,2.58,3.1,4.31,0,2.19-1.64,3.28-3.65,3.38-2.65.13-4.38-4.07-8.85-3.84-4.65.24-7.12,3.83-7.12,8.3,0,8.85,9.58,13.02,17.7,12.61,12.05-.61,20.9-9.36,20.9-21.68,0-5.38-2.01-10.58-6.84-13.89Z"/>
  </g>
</svg>